<svg xmlns="http://www.w3.org/2000/svg" viewBox="0 0 337.2 309.8" width="337.2" height="309.8" role="img" aria-label="JA">
<g transform="translate(28.0,-771.3)" fill="currentColor">
<path d="M0.0 1053.1073446327684V1047.4689375882767Q11.491575079449152 1046.6441009004238 19.63283732786017 1041.0508667681852Q27.774099576271187 1035.4576326359463 32.01704294668079 1022.0282430702683Q36.259986317090394 1008.5988535045904 36.259986317090394 984.9039713541666V829.9435028248588Q36.259986317090394 819.4915254237288 34.70065876588983 814.5480225988701Q33.14133121468927 809.6045197740114 28.469003795903955 807.768361581921Q23.796676377118644 805.9322033898305 14.734507415254239 805.6497175141243V800.0Q21.480237023305087 800.2824858757062 32.57622153072034 800.5649717514125Q43.67220603813559 800.8474576271186 55.88682357874294 800.8474576271186Q68.10144111935028 800.8474576271186 79.74543167372882 800.5649717514125Q91.38942222810735 800.2824858757062 98.97129899364407 800.0V805.6497175141243Q89.90913003177965 805.9322033898305 85.23680261299435 807.768361581921Q80.56447519420905 809.6045197740114 79.00514764300848 814.5480225988701Q77.44582009180792 819.4915254237288 77.44582009180792 829.9435028248588V933.3333333333334Q77.44582009180792 944.9152542372881 77.36671577065678 958.406782419668Q77.28761144950565 971.898310602048 76.2989108845339 984.6101750088277Q75.31021031956215 997.3220394156074 72.64356020480227 1007.0621468926554Q67.163361802613 1026.7005704890537 48.98833366437147 1039.903957560911Q30.813305526129945 1053.1073446327684 0.0 1053.1073446327684Z"/>
<path d="M194.36181364759886 799.2655091366526 263.01719191384177 976.271186440678Q267.1188923463983 986.4632989053672 272.07936087570624 990.2655477577683Q277.03982940501413 994.0677966101695 281.1528403072034 994.3502824858757V1000.0Q273.3337195444915 999.4350282485875 262.5654627913135 999.2937853107344Q251.79720603813558 999.1525423728814 240.7577738788842 999.1525423728814Q228.11377228990114 999.1525423728814 217.01778778248587 999.2937853107344Q205.92180327507063 999.4350282485875 199.17607366701978 1000.0V994.3502824858757Q213.58285332803672 993.7853107344632 217.46986173640536 989.4067796610169Q221.356870144774 985.0282485875706 215.70715263064972 970.6214689265537L166.69006002824858 837.547724664548L171.75218485169492 830.8924788135594L127.48079978813558 945.9664382503531Q121.74073644950565 960.6555658545198 120.5543095647952 970.0509798728813Q119.36788268008475 979.4463938912429 121.97239417814265 984.644106417726Q124.57690567620057 989.8418189442091 130.57124768273306 991.9548077771892Q136.56558968926555 994.0677966101695 145.18706413312145 994.3502824858757V1000.0Q136.05717028601694 999.4350282485875 127.57693878001412 999.2937853107344Q119.0967072740113 999.1525423728814 110.53178517831921 999.1525423728814Q104.28316450388418 999.1525423728814 98.79731086687853 999.2937853107344Q93.31145722987289 999.4350282485875 89.07416909427965 1000.0V994.3502824858757Q95.13064971751412 993.0734408103814 101.26623466189972 986.8983381885594Q107.40181960628531 980.7232355667372 113.15319341454801 965.7063802083334L177.77473406603107 799.2655091366526Q181.6164316295904 799.536684542726 186.06827385681498 799.536684542726Q190.52011608403956 799.536684542726 194.36181364759886 799.2655091366526ZM217.02896031956215 918.6440677966102V924.2937853107345H132.84816935911016L135.6730281161723 918.6440677966102Z"/>
</g></svg>